<svg width="1137" height="1801" viewBox="0 0 1137 1801" fill="none" xmlns="http://www.w3.org/2000/svg">
<path d="M165.13 1325.76H73.2161L55.7421 1378.18H0L94.7094 1123.76H143.287L238.521 1378.18H182.779L165.13 1325.76ZM87.3702 1283.3H150.976L118.998 1188.06L87.3702 1283.3ZM316.281 1142.63V1189.11H348.607V1226.16H316.281V1320.52C316.281 1327.51 317.619 1332.52 320.3 1335.55C322.98 1338.57 328.105 1340.09 335.678 1340.09C341.267 1340.09 346.22 1339.68 350.529 1338.87V1377.13C340.627 1380.16 330.435 1381.68 319.949 1381.68C284.538 1381.68 266.48 1363.8 265.781 1328.03V1226.16H238.172V1189.11H265.781V1142.63H316.281ZM363.634 1281.9C363.634 1263.15 367.249 1246.43 374.471 1231.75C381.692 1217.07 392.06 1205.71 405.573 1197.68C419.204 1189.64 434.99 1185.62 452.93 1185.62C478.439 1185.62 499.235 1193.42 515.31 1209.03C531.504 1224.64 540.533 1245.85 542.397 1272.64L542.744 1285.57C542.744 1314.58 534.649 1337.88 518.456 1355.47C502.262 1372.94 480.536 1381.68 453.277 1381.68C426.018 1381.68 404.235 1372.94 387.927 1355.47C371.733 1337.99 363.634 1314.23 363.634 1284.17V1281.9ZM414.137 1285.57C414.137 1303.51 417.515 1317.26 424.272 1326.81C431.028 1336.24 440.698 1340.96 453.277 1340.96C465.509 1340.96 475.061 1336.3 481.935 1326.98C488.81 1317.55 492.245 1302.52 492.245 1281.9C492.245 1264.31 488.81 1250.68 481.935 1241.01C475.061 1231.34 465.395 1226.51 452.93 1226.51C440.58 1226.51 431.028 1231.34 424.272 1241.01C417.515 1250.56 414.137 1265.42 414.137 1285.57ZM621.204 1189.11L622.775 1210.26C636.173 1193.83 654.289 1185.62 677.121 1185.62C701.467 1185.62 718.186 1195.23 727.273 1214.45C740.553 1195.23 759.481 1185.62 784.063 1185.62C804.565 1185.62 819.825 1191.62 829.845 1203.62C839.862 1215.5 844.872 1233.44 844.872 1257.44V1378.18H794.198V1257.61C794.198 1246.89 792.101 1239.09 787.906 1234.2C783.712 1229.19 776.315 1226.68 765.715 1226.68C750.57 1226.68 740.084 1233.9 734.262 1248.35L734.437 1378.18H683.935V1257.78C683.935 1246.84 681.78 1238.91 677.471 1234.02C673.159 1229.13 665.819 1226.68 655.452 1226.68C641.123 1226.68 630.755 1232.62 624.349 1244.5V1378.18H573.85V1189.11H621.204ZM937.134 1378.18H886.46V1189.11H937.134V1378.18ZM883.49 1140.19C883.49 1132.61 885.995 1126.38 891.005 1121.49C896.13 1116.59 903.062 1114.15 911.797 1114.15C920.418 1114.15 927.293 1116.59 932.418 1121.49C937.542 1126.38 940.105 1132.61 940.105 1140.19C940.105 1147.88 937.485 1154.16 932.242 1159.06C927.118 1163.95 920.304 1166.4 911.797 1166.4C903.294 1166.4 896.42 1163.95 891.177 1159.06C886.052 1154.16 883.49 1147.88 883.49 1140.19ZM1057.53 1340.96C1066.85 1340.96 1074.42 1338.4 1080.25 1333.27C1086.07 1328.15 1089.1 1321.34 1089.34 1312.83H1136.69C1136.57 1325.64 1133.08 1337.41 1126.2 1348.13C1119.33 1358.73 1109.9 1367 1097.9 1372.94C1086.02 1378.77 1072.85 1381.68 1058.41 1381.68C1031.38 1381.68 1010.06 1373.12 994.451 1355.99C978.841 1338.75 971.035 1314.98 971.035 1284.7V1281.38C971.035 1252.25 978.783 1229.01 994.275 1211.66C1009.77 1194.3 1031.03 1185.62 1058.05 1185.62C1081.7 1185.62 1100.63 1192.37 1114.85 1205.89C1129.17 1219.29 1136.46 1237.17 1136.69 1259.53H1089.34C1089.1 1249.75 1086.07 1241.83 1080.25 1235.77C1074.42 1229.6 1066.73 1226.51 1057.18 1226.51C1045.41 1226.51 1036.5 1230.82 1030.45 1239.44C1024.5 1247.94 1021.53 1261.8 1021.53 1281.03V1286.27C1021.53 1305.73 1024.5 1319.7 1030.45 1328.21C1036.39 1336.71 1045.41 1340.96 1057.53 1340.96ZM291.466 1723.5L325.718 1542.47H377.963L321.524 1796.89H268.751L227.338 1626.69L185.924 1796.89H133.152L76.7111 1542.47H128.959L163.383 1723.15L205.32 1542.47H249.705L291.466 1723.5ZM506.75 1796.89C504.42 1792.35 502.731 1786.7 501.683 1779.94C489.451 1793.57 473.547 1800.39 453.978 1800.39C435.455 1800.39 420.077 1795.03 407.846 1784.31C395.728 1773.59 389.673 1760.08 389.673 1743.77C389.673 1723.73 397.07 1708.35 411.864 1697.64C426.777 1686.92 448.267 1681.5 476.345 1681.39H499.585V1670.55C499.585 1661.82 497.313 1654.83 492.768 1649.58C488.341 1644.34 481.295 1641.72 471.625 1641.72C463.122 1641.72 456.423 1643.76 451.531 1647.84C446.753 1651.91 444.366 1657.5 444.366 1664.61H393.867C393.867 1653.66 397.245 1643.53 404.002 1634.21C410.759 1624.89 420.31 1617.6 432.66 1612.37C445.007 1607 458.871 1604.32 474.248 1604.32C497.545 1604.32 516.012 1610.21 529.639 1621.97C543.385 1633.62 550.26 1650.05 550.26 1671.25V1753.2C550.374 1771.14 552.879 1784.72 557.771 1793.92V1796.89H506.75ZM464.986 1761.77C472.441 1761.77 479.316 1760.14 485.603 1756.87C491.895 1753.49 496.554 1749.01 499.585 1743.42V1710.92H480.711C455.431 1710.92 441.979 1719.65 440.347 1737.13L440.172 1740.1C440.172 1746.39 442.387 1751.57 446.814 1755.65C451.241 1759.73 457.296 1761.77 464.986 1761.77ZM642.347 1796.89H591.672V1528.49H642.347V1796.89ZM737.407 1796.89H686.733V1528.49H737.407V1796.89ZM866.19 1800.39C838.466 1800.39 815.867 1791.88 798.392 1774.87C781.035 1757.86 772.353 1735.21 772.353 1706.9V1702C772.353 1683.02 776.025 1666.07 783.365 1651.15C790.701 1636.13 801.069 1624.59 814.467 1616.56C827.981 1608.4 843.358 1604.32 860.6 1604.32C886.46 1604.32 906.787 1612.48 921.585 1628.79C936.494 1645.1 943.952 1668.22 943.952 1698.16V1718.78H823.554C825.186 1731.13 830.078 1741.03 838.234 1748.49C846.504 1755.94 856.929 1759.67 869.511 1759.67C888.965 1759.67 904.168 1752.62 915.118 1738.53L939.933 1766.31C932.36 1777.03 922.107 1785.42 909.178 1791.47C896.248 1797.41 881.919 1800.39 866.19 1800.39ZM860.425 1645.21C850.405 1645.21 842.252 1648.59 835.961 1655.35C829.788 1662.11 825.826 1671.78 824.076 1684.36H894.323V1680.34C894.09 1669.16 891.062 1660.53 885.236 1654.48C879.414 1648.3 871.143 1645.21 860.425 1645.21ZM1033.24 1561.34V1607.82H1065.57V1644.87H1033.24V1739.23C1033.24 1746.22 1034.58 1751.23 1037.26 1754.25C1039.94 1757.28 1045.07 1758.79 1052.64 1758.79C1058.23 1758.79 1063.18 1758.39 1067.49 1757.57V1795.84C1057.59 1798.87 1047.4 1800.39 1036.91 1800.39C1001.5 1800.39 983.443 1782.5 982.741 1746.74V1644.87H955.135V1607.82H982.741V1561.34H1033.24Z" fill="white"/>
<path fill-rule="evenodd" clip-rule="evenodd" d="M41.3789 1029.45L358.406 160.892C398.634 59.4831 473.633 2.08028 573.339 0.423605V0.386719C574.083 0.386719 574.824 0.389785 575.568 0.395912C576.309 0.389785 577.05 0.386719 577.794 0.386719V0.423605C677.5 2.08028 752.499 59.4831 792.727 160.892L1109.76 1029.45L913.44 961.18L642.622 219.22C626.139 178.18 607.111 163.408 575.568 162.756C544.022 163.408 524.994 178.18 508.511 219.22L237.693 961.18L41.3789 1029.45ZM713.509 698.726C713.509 774.594 652.582 836.094 577.426 836.094C502.27 836.094 441.342 774.594 441.342 698.726C441.342 622.858 502.27 561.354 577.426 561.354C652.582 561.354 713.509 622.858 713.509 698.726Z" fill="url(#paint0_linear)"/>
<mask id="mask0" mask-type="alpha" maskUnits="userSpaceOnUse" x="41" y="0" width="1069" height="1030">
<path fill-rule="evenodd" clip-rule="evenodd" d="M41.3789 1029.45L358.406 160.892C398.634 59.4831 473.633 2.08028 573.339 0.423605V0.386719C574.083 0.386719 574.824 0.389785 575.568 0.395912C576.309 0.389785 577.05 0.386719 577.794 0.386719V0.423605C677.5 2.08028 752.499 59.4831 792.727 160.892L1109.76 1029.45L913.44 961.18L642.622 219.22C626.139 178.18 607.111 163.408 575.568 162.756C544.022 163.408 524.994 178.18 508.511 219.22L237.693 961.18L41.3789 1029.45ZM713.509 698.726C713.509 774.594 652.582 836.094 577.426 836.094C502.27 836.094 441.342 774.594 441.342 698.726C441.342 622.858 502.27 561.354 577.426 561.354C652.582 561.354 713.509 622.858 713.509 698.726Z" fill="white"/>
</mask>
<g mask="url(#mask0)">
</g>
<defs>
<linearGradient id="paint0_linear" x1="41.3789" y1="0.386719" x2="41.3789" y2="1029.45" gradientUnits="userSpaceOnUse">
<stop stop-color="#42C1FD"/>
<stop offset="1" stop-color="#1F8EFA"/>
</linearGradient>
</defs>
</svg>
