<svg width="204" height="30" viewBox="0 0 204 30" fill="none" xmlns="http://www.w3.org/2000/svg">
<path d="M0.0619864 8.47923C0.0993674 7.75458 3.126 2.20133 3.93674 1.72899C4.74748 1.25666 12.5534 0.569077 12.5534 0.569077C12.5534 0.569077 5.97921 6.16418 4.7009 14.5873C3.4226 23.0105 5.09371 29.5305 5.09371 29.5305C5.09371 29.5305 -0.0379004 10.2687 0.0619864 8.47923Z" fill="#E11D48"/>
<path d="M10.4986 22.3133C10.4986 22.3133 19.9082 4.80098 31.1924 0.0351562L25.5178 20.9836L5.6054 29.964C5.6054 29.964 22.3349 18.4192 23.6359 17.8662L27.0823 5.46883C27.0866 5.47242 13.6717 17.7424 10.4986 22.3133Z" fill="#E11D48"/>
<path d="M18.4687 7.97999C18.4687 7.97999 10.3699 15.9493 8.34708 22.3068C8.34708 22.3068 7.15457 17.9912 7.39111 17.0094L18.4687 7.97999Z" fill="#E11D48"/>
<path d="M38 27V3H50.7347C52.0641 3 53.2303 3.2449 54.2332 3.73469C55.2361 4.20117 56.0175 4.87755 56.5773 5.76385C57.1603 6.65015 57.4519 7.68805 57.4519 8.87755C57.4519 9.78717 57.277 10.6152 56.9271 11.3615C56.6006 12.1079 56.1341 12.7376 55.5277 13.2507C54.9446 13.7638 54.2799 14.1487 53.5335 14.4052V14.5452C54.3965 14.7318 55.1662 15.0816 55.8426 15.5948C56.5423 16.0845 57.0904 16.7376 57.4869 17.5539C57.9067 18.3469 58.1166 19.3032 58.1166 20.4227C58.1166 21.9388 57.7784 23.1866 57.102 24.1662C56.449 25.1458 55.5743 25.8688 54.4781 26.3353C53.3819 26.7784 52.1341 27 50.7347 27H38ZM41.9184 23.6414H50.4198C51.4927 23.6414 52.3673 23.3615 53.0437 22.8018C53.7434 22.2187 54.0933 21.2857 54.0933 20.0029C54.0933 19.2332 53.9417 18.5802 53.6385 18.0437C53.3586 17.484 52.9271 17.0641 52.344 16.7843C51.7609 16.481 51.0262 16.3294 50.1399 16.3294H41.9184V23.6414ZM41.9184 13.0408H49.8251C50.5714 13.0408 51.2128 12.9009 51.7493 12.621C52.2857 12.3411 52.6939 11.9446 52.9738 11.4315C53.277 10.9184 53.4286 10.3469 53.4286 9.7172C53.4286 8.57434 53.1137 7.73469 52.484 7.19825C51.8776 6.63848 51.0729 6.3586 50.07 6.3586H41.9184V13.0408Z" fill="white"/>
<path d="M59.0664 27L68.4775 3H73.4804L82.9265 27H78.7282L76.5941 21.4373H65.2238L63.0897 27H59.0664ZM66.4833 18.1137H75.2997L72.6058 11.0816C72.5358 10.8717 72.4308 10.5802 72.2909 10.207C72.151 9.83382 71.9994 9.42566 71.8361 8.98251C71.6962 8.53936 71.5446 8.09621 71.3813 7.65306C71.2413 7.18659 71.1131 6.76676 70.9964 6.39359H70.7865C70.6466 6.83673 70.4717 7.36152 70.2617 7.96793C70.0518 8.57434 69.8419 9.15744 69.632 9.7172C69.4454 10.277 69.2822 10.7318 69.1422 11.0816L66.4833 18.1137Z" fill="white"/>
<path d="M88.0125 27V6.3586H80.0708V3H99.9425V6.3586H91.9308V27H88.0125Z" fill="white"/>
<path d="M108.56 27V6.3586H100.618V3H120.49V6.3586H112.478V27H108.56Z" fill="white"/>
<path d="M123.229 27V3H127.147V23.6064H139.113V27H123.229Z" fill="white"/>
<path d="M141.658 27V3H160.27V6.3586H145.576V13.0408H158.731V16.3994H145.576V23.6414H160.48V27H141.658Z" fill="white"/>
<path d="M164.357 27V3H181.5V6.3586H168.276V13.4606H180.241V16.7843H168.276V27H164.357Z" fill="#E11D48"/>
<path d="M190.737 27V17.1341L181.396 3H185.874L192.731 13.6356H192.906L199.693 3H203.996L194.655 17.1341V27H190.737Z" fill="#E11D48"/>
</svg>
