<svg width="272" height="48" viewBox="0 0 272 48" fill="none" xmlns="http://www.w3.org/2000/svg">
<path d="M18.0971 48C16.1638 48 14.6573 46.3431 14.8633 44.4433L16.3263 30.9485C16.3812 30.4418 15.9795 30 15.4639 30L4.38445 30C3.87558 30 3.39237 29.7792 3.0628 29.396L1.91294 28.059C1.38201 27.4417 1.36085 26.5413 1.86223 25.9003L21.9905 0.166461C22.0727 0.0614718 22.1994 0 22.3336 0H23.8677C25.801 0 27.3075 1.65688 27.1015 3.55672L25.6385 17.0515C25.5836 17.5582 25.9853 18 26.5009 18H37.5891C38.0929 18 38.5719 18.2165 38.9014 18.5933L40.0778 19.9385C40.6178 20.5559 40.6424 21.464 40.1367 22.1092L19.9739 47.8339C19.8918 47.9387 19.7652 48 19.6311 48H18.0971Z" fill="url(#paint0_linear_4723:1088)"/>
<path fill-rule="evenodd" clip-rule="evenodd" d="M17.6519 31.0922L16.1889 44.587C16.0702 45.6811 16.9397 46.6667 18.0971 46.6667H19.1947L39.0873 21.2867C39.1975 21.1461 39.1928 20.9519 39.0741 20.8162L37.8977 19.471C37.8234 19.386 37.7113 19.3333 37.5891 19.3333H26.5009C25.2094 19.3333 24.1707 18.2202 24.313 16.9078L25.776 3.41301C25.8946 2.31892 25.0251 1.33333 23.8677 1.33333H22.7706L2.91246 26.7218C2.80318 26.8615 2.80722 27.054 2.92382 27.1896L4.07368 28.5265C4.14796 28.6129 4.26096 28.6667 4.38445 28.6667L15.4639 28.6667C16.7554 28.6667 17.7941 29.7798 17.6519 31.0922ZM14.8633 44.4433C14.6573 46.3431 16.1638 48 18.0971 48H19.6311C19.7652 48 19.8918 47.9387 19.9739 47.8339L40.1367 22.1092C40.6424 21.464 40.6178 20.5559 40.0778 19.9385L38.9014 18.5933C38.5719 18.2165 38.0929 18 37.5891 18H26.5009C25.9854 18 25.5836 17.5582 25.6385 17.0515L27.1015 3.55672C27.3075 1.65688 25.801 0 23.8677 0H22.3336C22.1994 0 22.0727 0.0614718 21.9905 0.166461L1.86223 25.9003C1.36085 26.5413 1.38201 27.4417 1.91294 28.059L3.0628 29.396C3.39237 29.7792 3.87558 30 4.38445 30L15.4639 30C15.9795 30 16.3812 30.4418 16.3263 30.9485L14.8633 44.4433Z" fill="url(#paint1_linear_4723:1088)"/>
<path d="M139.998 35.9998V18L131.999 18.0003V12.0003L153.999 12V18H145.999V35.9998H139.998Z" fill="white"/>
<path d="M184 35.9997H162L162 30.0405L175.788 18H162V12H184V18L169.788 30H184V35.9997Z" fill="white"/>
<path d="M117.999 35.9997V12H123.999V35.9997H117.999Z" fill="white"/>
<path d="M95.9986 30H109.999V35.9816L89.9996 36V12.0002H95.9986V30Z" fill="white"/>
<path fill-rule="evenodd" clip-rule="evenodd" d="M82 29C82 34 80 35.9997 74 35.9997H58V12H73C79 12 81 14 81 18.9712C81 23.9424 78 24 78 24C78 24 82 24 82 29ZM75 20C75 22 74.1875 22 73 22H63.9999V18H73C74.1898 18 75 18 75 20ZM76 28C76 30 75.168 30 74 30H63.9999V26H74C75.1875 26 76 26 76 28Z" fill="white"/>
<path fill-rule="evenodd" clip-rule="evenodd" d="M200 16H214.01C216.26 16 217.55 16.3898 218.6 17.4393C219.65 18.4888 220.01 19.7181 220.01 21.997V24.003C220.01 26.2819 219.65 27.5112 218.6 28.5607C217.55 29.6102 216.26 30 214.01 30H204V36H200V16ZM204 20V26H213.6C215.61 26 216 25.6102 216 23.6012V22.3988C216 20.3898 215.61 20 213.6 20H204Z" fill="white"/>
<path fill-rule="evenodd" clip-rule="evenodd" d="M226 16H240C242.25 16 243.54 16.3898 244.59 17.4393C245.64 18.4888 246 19.7181 246 21.997V23.8061C246 27.5842 244.664 29.2034 241.304 29.7731L246.312 36H241.093L236.457 30H230V36H226V16ZM230 20V25.995H239.6C241.61 25.995 242 25.6052 242 23.5962V22.3988C242 20.3898 241.61 20 239.6 20H230Z" fill="white"/>
<path fill-rule="evenodd" clip-rule="evenodd" d="M253.41 34.5607C254.46 35.6102 255.75 36 258 36H266C268.25 36 269.54 35.6102 270.59 34.5607C271.64 33.5112 272 32.2519 272 29.973V22.027C272 19.7481 271.64 18.4888 270.59 17.4393C269.54 16.3898 268.25 16 266 16H258C255.75 16 254.46 16.3898 253.41 17.4393C252.36 18.4888 252 19.7481 252 22.027V29.973C252 32.2519 252.36 33.5112 253.41 34.5607ZM265.6 20H258.4C256.39 20 256 20.3898 256 22.3988V29.6012C256 31.6102 256.39 32 258.4 32H265.6C267.61 32 268 31.6102 268 29.6012V22.3988C268 20.3898 267.61 20 265.6 20Z" fill="white"/>
<defs>
<linearGradient id="paint0_linear_4723:1088" x1="34.1461" y1="30.5946" x2="11.8266" y2="11.6005" gradientUnits="userSpaceOnUse">
<stop stop-color="#CE0F50"/>
<stop offset="1" stop-color="#FE112D"/>
</linearGradient>
<linearGradient id="paint1_linear_4723:1088" x1="21" y1="5.47185e-09" x2="21" y2="48" gradientUnits="userSpaceOnUse">
<stop stop-color="#FF003D"/>
<stop offset="1" stop-color="#FF003D" stop-opacity="0"/>
</linearGradient>
</defs>
</svg>
