<svg xmlns="http://www.w3.org/2000/svg" width="106" height="32" viewBox="0 0 106 32" fill="none"><g clip-path="url(#clip0_2149_10)"><path d="M16 0C7.16406 0 0 7.16406 0 16C0 24.8359 7.16406 32 16 32C24.8359 32 32 24.8359 32 16C32 7.16406 24.8359 0 16 0ZM4.43113 22.2162L16.6056 2.883C19.5307 3.01728 22.2031 4.10466 24.3252 5.84499L5.84499 24.3252C5.30788 23.6722 4.83396 22.9666 4.43113 22.2162ZM7.7275 26.1945L26.1945 7.7275C27.9243 9.8575 29.0011 12.5404 29.117 15.4682L9.8496 27.6031C9.09396 27.2029 8.38572 26.7316 7.7275 26.1971V26.1945ZM16 29.1302C14.9547 29.1302 13.9411 29.0038 12.9643 28.7747L28.8326 18.783C27.5557 24.699 22.2978 29.1328 16 29.1328V29.1302Z" fill="black"></path><path d="M38.9277 22.9457C38.9277 26.3158 41.658 29.046 45.0281 29.046H59.8986V22.9457H45.8996V18.5777H58.9797V13.1645H45.8996V8.94139H59.8986V2.83838H45.0228C41.6554 2.83838 38.9277 5.56867 38.9277 8.93349V22.943V22.9457Z" fill="black"></path><path d="M83.2874 21.1C83.2874 16.7163 79.7304 13.1619 75.3466 13.1619H69.0383V8.93876H82.0289V2.83838H69.9361C65.5892 2.83838 62.0664 6.36117 62.0664 10.7081C62.0664 15.0549 65.5892 18.5777 69.9361 18.5777H76.3182V22.9457H63.3276V29.046H75.3466C79.733 29.046 83.29 25.489 83.2874 21.1027V21.1Z" fill="black"></path><path d="M91.8797 29.0434H105.089V22.943H92.7512V2.83838H85.7793V22.943C85.7793 26.3131 88.5096 29.0434 91.8797 29.0434Z" fill="black"></path></g><defs><clipPath id="clip0_2149_10"><rect width="105.089" height="32" fill="white"></rect></clipPath></defs></svg>