<?xml version="1.0" encoding="UTF-8" standalone="no"?>
<!-- Created with Inkscape (http://www.inkscape.org/) -->

<svg
   width="1090"
   height="427"
   viewBox="0 0 288.39583 112.97709"
   version="1.1"
   id="svg5"
   xmlns="http://www.w3.org/2000/svg"
   xmlns:svg="http://www.w3.org/2000/svg">
  <defs
     id="defs2" />
  <g
     id="layer1">
    <path
       id="path857"
       style="fill:#0b7d6c;fill-opacity:1"
       d="M 0,0 V 326.66406 H 166.29883 V 285.08984 H 46.714844 V 0 Z m 735.11719,0 c -34.28032,0 -56.69141,26.040985 -56.69141,58.544922 v 34.28125 H 643.01172 V 132.2832 h 35.41406 v 194.38086 h 46.86524 l 0.3789,-194.38086 h 58.20313 V 92.826172 H 725.66992 V 67.541016 c -0.37795,-19.84252 8.91922,-25.966797 25.20899,-25.966797 h 35.26367 V 0 Z m 66.70898,0 v 274.16602 c 0,0 10e-4,52.49804 58.69727,52.49804 h 24.94336 v -41.57422 h -21.35352 c -9.78898,0 -15.64648,-7.55939 -15.64648,-26.45703 V 0 Z M 510.19922,88.175781 c -60.73701,0 -108.88867,48.113979 -108.88867,121.474609 0,73.36063 46.715,121.47461 106.54492,121.47461 36.92598,0 60.47271,-17.31015 72.41601,-38.21094 l 4.19532,33.5625 h 42.93554 V 92.826172 H 584.4668 l -3.55274,32.464848 C 568.66839,100.83747 541.94725,88.175781 510.19922,88.175781 Z m -233.65039,0.113281 c -64.06299,0 -112.70703,49.549668 -112.70703,120.642578 0,73.88976 44.63624,122.49609 116.44726,122.49609 44.0315,0 89.76462,-25.66301 101.44336,-74.79687 h -46.14844 c -9.82677,22.67716 -32.72971,34.01562 -54.72656,34.01562 -44.40945,0 -66.82203,-27.62832 -70.60156,-69.20312 H 385.51172 V 206.51367 C 385.20936,124.15777 334.82914,88.289062 276.54883,88.289062 Z m 587.7539,4.53711 81.82618,233.837888 h 14.74023 l -6.53906,19.6543 c -6.99213,20.56063 -21.95847,37.41797 -41.57422,37.41797 a 55.974803,55.974803 0 0 1 -34.62109,-13.57031 l -19.65235,34.01757 a 80.541732,80.541732 0 0 0 56.125,22.67579 c 49.66299,0 72.98297,-32.42715 86.51368,-74.00196 l 87.9492,-260.031248 h -50.041 L 977.76367,280.47852 h -0.71875 L 916.19531,92.826172 Z M 278.06055,126.99219 c 38.3622,0 61.26616,27.59069 62.09765,58.43164 H 212.14453 c 6.99213,-35.52756 31.29554,-58.43164 65.91602,-58.43164 z m 235.95507,2.7207 c 40.28977,0 66.44336,32.16384 66.44336,78.99219 0,46.82834 -26.94729,78.99219 -66.44336,78.99219 -39.68503,0 -68.03124,-32.65518 -68.03124,-78.99219 0,-46.33701 27.74148,-78.99219 68.03124,-78.99219 z m 549.08988,146.38086 c -15.6095,0 -26.4571,11.33925 -26.4571,27.51563 0,16.17637 10.961,27.51562 26.4571,27.51562 15.496,0 25.9648,-11.33925 25.9648,-27.51562 0,-16.17638 -10.3554,-27.51563 -25.9648,-27.51563 z"
       transform="scale(0.26458333)" />
  </g>
</svg>
