<?xml version="1.0" encoding="utf-8"?>
<!-- Generator: Adobe Illustrator 25.0.1, SVG Export Plug-In . SVG Version: 6.00 Build 0)  -->
<svg version="1.0" id="Layer_1" xmlns="http://www.w3.org/2000/svg" xmlns:xlink="http://www.w3.org/1999/xlink" x="0px" y="0px"
	 viewBox="0 0 875 541" style="enable-background:new 0 0 875 541;" xml:space="preserve">
<style type="text/css">
	.st0{fill:#FF7028;}
	.st1{fill:url(#SVGID_1_);}
	.st2{fill:url(#SVGID_2_);}
	.st3{fill:url(#SVGID_3_);}
	.st4{opacity:0.6;}
	.st5{fill:url(#SVGID_4_);}
	.st6{fill:url(#SVGID_5_);}
	.st7{fill:none;}
</style>
<path class="st0" d="M301.7,226.5h-46.6v101.7h28.9v-26.6h17.8c27.8,0,45.3-14.4,45.3-37.5S329.6,226.5,301.7,226.5z M300,279h-16
	v-29.8h16c12,0,17.9,5.5,17.9,15S311.9,279,300,279z"/>
<path class="st0" d="M374.4,240.8c10.2,0,16.9-6.4,16.9-15.1c0-8.3-6.7-14.2-16.9-14.2s-16.9,6.4-16.9,14.7S364.2,240.8,374.4,240.8
	z M360.5,328.2h27.7v-78.7h-27.7V328.2z"/>
<path class="st0" d="M445.8,329.5c26.1,0,44.6-17,44.6-40.8s-18.5-40.5-44.6-40.5c-25.8,0-44.6,16.8-44.6,40.5
	S420,329.5,445.8,329.5z M445.8,307.6c-9.3,0-16.6-6.8-16.6-18.9s7.3-18.6,16.6-18.6s16.6,6.7,16.6,18.6S455.3,307.6,445.8,307.6z"
	/>
<path class="st0" d="M554.7,248.2c-9.9,0-18.8,3.3-25.1,9.9v-8.6h-26.4v78.7H531v-38.1c0-13.1,6.8-18.6,15.7-18.6
	c8,0,13,4.8,13,16.1v40.5h27.7v-45C587.3,258.8,573.2,248.2,554.7,248.2z"/>
<path class="st0" d="M686.6,289c0-26-18.9-40.8-42.3-40.8c-24.9,0-43.4,16.8-43.4,40.5s18.2,40.8,46.3,40.8c15,0,26.1-4.4,33.7-12.8
	l-14.6-15.1c-5.4,4.6-10.5,6.8-18.2,6.8c-10.2,0-17-4.6-19.4-12.6h57.4C686.3,293.6,686.6,291,686.6,289z M644.5,267.8
	c8.6,0,14.7,5.2,16.2,13.5h-32.3C629.9,273,635.9,267.8,644.5,267.8L644.5,267.8z"/>
<path class="st0" d="M779,328.2l-30.2-40.4l29.2-38.4h-29.3l-14.6,19.9l-14-19.9h-31.2l29.1,39.4l-30,39.4h30l15.2-20.6l14.1,20.6
	H779z"/>
<linearGradient id="SVGID_1_" gradientUnits="userSpaceOnUse" x1="140.83" y1="412.49" x2="289.47" y2="412.49" gradientTransform="matrix(1 0 0 1 -15 -141)">
	<stop  offset="0" style="stop-color:#FF7028"/>
	<stop  offset="1" style="stop-color:#FFCD4D"/>
</linearGradient>
<path class="st1" d="M130.4,268.4c5-9.3,14.8-15.1,25.3-15.1h72.6c0,20.1-16.3,36.3-36.3,36.3h-73.1L130.4,268.4z"/>
<linearGradient id="SVGID_2_" gradientUnits="userSpaceOnUse" x1="261.61" y1="376.165" x2="73.14" y2="376.165" gradientTransform="matrix(1 0 0 1 -15 -141)">
	<stop  offset="0" style="stop-color:#FF7028"/>
	<stop  offset="1" style="stop-color:#FFCD4D"/>
</linearGradient>
<path class="st2" d="M130.4,238.2c5,9.3,14.8,15.1,25.3,15.1h72.6c0-20.1-16.3-36.3-36.3-36.3h-73.1L130.4,238.2z"/>
<linearGradient id="SVGID_3_" gradientUnits="userSpaceOnUse" x1="208.7" y1="431.745" x2="92.99" y2="431.745" gradientTransform="matrix(1 0 0 1 -15 -141)">
	<stop  offset="0" style="stop-color:#FF7028"/>
	<stop  offset="1" style="stop-color:#FFCD4D"/>
</linearGradient>
<path class="st3" d="M127.8,273.1c6.6-12.2,19.4-19.8,33.2-19.8h26.6l-31.9,58.9c-5.4,9.9-15.7,16-26.9,16H98L127.8,273.1z"/>
<g class="st4">
	
		<linearGradient id="SVGID_4_" gradientUnits="userSpaceOnUse" x1="138.26" y1="440.31" x2="170.91" y2="440.31" gradientTransform="matrix(1 0 0 1 -15 -141)">
		<stop  offset="0" style="stop-color:#C44100"/>
		<stop  offset="1" style="stop-color:#C84300;stop-opacity:0"/>
	</linearGradient>
	<path class="st5" d="M157.6,308.9c-12-17-31.6-19.1-38.8-19.2H168L157.6,308.9z"/>
</g>
<linearGradient id="SVGID_5_" gradientUnits="userSpaceOnUse" x1="307.0292" y1="373.4574" x2="130.0292" y2="425.6974" gradientTransform="matrix(1 0 0 1 -15 -141)">
	<stop  offset="0" style="stop-color:#FF7028"/>
	<stop  offset="1" style="stop-color:#FFCD4D"/>
</linearGradient>
<path class="st6" d="M155.7,253.3c-10.6,0-20.3,5.8-25.3,15.1l-11.4,21.2H168l19.7-36.3H155.7z"/>
<rect x="78" y="188" class="st7" width="719" height="165"/>
</svg>
