<?xml version="1.0" encoding="utf-8"?>
<!-- Generator: Adobe Illustrator 27.8.0, SVG Export Plug-In . SVG Version: 6.00 Build 0)  -->
<svg version="1.0" id="katman_1" xmlns="http://www.w3.org/2000/svg" xmlns:xlink="http://www.w3.org/1999/xlink" x="0px" y="0px"
	 viewBox="0 0 841.89 595.28" style="enable-background:new 0 0 841.89 595.28;" xml:space="preserve">
<style type="text/css">
	.st0{fill:#0E1213;}
	.st1{fill:#FFFFFF;}
</style>
<path class="st0" d="M175.78,297.41c0-135.43,109.78-245.21,245.21-245.21s245.21,109.78,245.21,245.21S556.41,542.62,420.99,542.62
	S175.78,432.84,175.78,297.41z"/>
<path class="st1" d="M538.68,276.38c2.7,0,4.9-2.21,4.9-4.9v-56.4c0-2.7-2.21-4.9-4.9-4.9h-19.62c-2.7,0-4.9-2.21-4.9-4.9v-19.62
	c0-2.7-2.21-4.9-4.9-4.9H332.71c-2.7,0-4.9,2.21-4.9,4.9v19.62c0,2.7-2.21,4.9-4.9,4.9h-19.62c-2.7,0-4.9,2.21-4.9,4.9V296
	c0,2.7,2.21,4.9,4.9,4.9h63.75c2.7,0,4.9,2.21,4.9,4.9v14.71c0,2.7,2.21,4.9,4.9,4.9h88.27c2.7,0,4.9,2.21,4.9,4.9v51.49
	c0,2.7-2.21,4.9-4.9,4.9h-51.49c-2.7,0-4.9-2.21-4.9-4.9v-22.07c0-2.7-2.21-4.9-4.9-4.9h-51.49c-2.7,0-4.9-2.21-4.9-4.9v-14.71
	c0-2.7-2.21-4.9-4.9-4.9h-39.23c-2.7,0-4.9,2.21-4.9,4.9v56.4c0,2.7,2.21,4.9,4.9,4.9h19.62c2.7,0,4.9,2.21,4.9,4.9v19.62
	c0,2.7,2.21,4.9,4.9,4.9h176.55c2.7,0,4.9-2.21,4.9-4.9v-19.62c0-2.7,2.21-4.9,4.9-4.9h19.62c2.7,0,4.9-2.21,4.9-4.9v-80.92
	c0-2.7-2.21-4.9-4.9-4.9h-63.75c-2.7,0-4.9-2.21-4.9-4.9v-14.71c0-2.7-2.21-4.9-4.9-4.9h-88.27c-2.7,0-4.9-2.21-4.9-4.9v-51.49
	c0-2.7,2.21-4.9,4.9-4.9h51.49c2.7,0,4.9,2.21,4.9,4.9v22.07c0,2.7,2.21,4.9,4.9,4.9h51.49c2.7,0,4.9,2.21,4.9,4.9v14.71
	c0,2.7,2.21,4.9,4.9,4.9C499.45,276.38,538.68,276.38,538.68,276.38z"/>
</svg>
