<?xml version="1.0" encoding="UTF-8" standalone="no"?>
<!-- Created with Inkscape (http://www.inkscape.org/) -->

<svg
   xmlns:dc="http://purl.org/dc/elements/1.1/"
   xmlns:cc="http://creativecommons.org/ns#"
   xmlns:rdf="http://www.w3.org/1999/02/22-rdf-syntax-ns#"
   xmlns:svg="http://www.w3.org/2000/svg"
   xmlns="http://www.w3.org/2000/svg"
   xmlns:sodipodi="http://sodipodi.sourceforge.net/DTD/sodipodi-0.dtd"
   xmlns:inkscape="http://www.inkscape.org/namespaces/inkscape"
   width="421.99991"
   height="102.90001"
   viewBox="0 0 111.65414 27.225627"
   version="1.1"
   id="svg11554"
   inkscape:version="0.92.0 r15299"
   sodipodi:docname="weedmaps.svg">
  <defs
     id="defs11548" />
  <sodipodi:namedview
     id="base"
     pagecolor="#ffffff"
     bordercolor="#666666"
     borderopacity="1.0"
     inkscape:pageopacity="0.0"
     inkscape:pageshadow="2"
     inkscape:zoom="1.9095238"
     inkscape:cx="209.99992"
     inkscape:cy="50.450007"
     inkscape:document-units="mm"
     inkscape:current-layer="layer1"
     showgrid="false"
     fit-margin-top="0"
     fit-margin-left="0"
     fit-margin-right="0"
     fit-margin-bottom="0"
     units="px"
     inkscape:window-width="1280"
     inkscape:window-height="744"
     inkscape:window-x="-4"
     inkscape:window-y="-4"
     inkscape:window-maximized="1" />
  <metadata
     id="metadata11551">
    <rdf:RDF>
      <cc:Work
         rdf:about="">
        <dc:format>image/svg+xml</dc:format>
        <dc:type
           rdf:resource="http://purl.org/dc/dcmitype/StillImage" />
        <dc:title></dc:title>
      </cc:Work>
    </rdf:RDF>
  </metadata>
  <g
     inkscape:label="Layer 1"
     inkscape:groupmode="layer"
     id="layer1"
     transform="translate(-133.89343,-265.84869)">
    <g
       id="g12399"
       transform="translate(0.26458122,-0.26457696)">
      <path
         style="fill:#00cdbe;fill-opacity:1;stroke-width:0.26458332"
         id="path11574"
         class="word"
         d="m 145.03237,282.51743 -2.09021,-7.85812 h -0.0529 l -1.95791,7.85812 h -3.33375 l -3.70417,-11.69458 h 3.38667 l 2.14312,7.9375 h 0.0529 l 1.93146,-7.9375 h 3.12208 l 1.98437,7.91104 h 0.0529 l 2.14313,-7.91104 h 3.30729 l -3.67771,11.69458 z m 10.21291,-2.80458 c 0.47625,0.47625 1.16417,0.68792 2.09021,0.68792 0.635,0 1.21709,-0.15875 1.66688,-0.47625 0.47625,-0.3175 0.76729,-0.66146 0.84666,-1.03188 h 2.83105 c -0.4498,1.40229 -1.13771,2.40771 -2.09021,3.01625 -0.92604,0.60854 -2.06375,0.89958 -3.38667,0.89958 -0.92604,0 -1.74625,-0.15875 -2.48708,-0.44979 -0.74084,-0.29104 -1.37584,-0.71437 -1.87854,-1.24354 -0.50271,-0.52917 -0.89959,-1.19062 -1.19063,-1.95792 -0.29104,-0.74083 -0.42333,-1.5875 -0.42333,-2.48708 0,-0.87312 0.13229,-1.69333 0.42333,-2.43417 0.29104,-0.74083 0.68792,-1.40229 1.21708,-1.95791 0.52917,-0.55563 1.16417,-0.97896 1.87855,-1.29646 0.74083,-0.3175 1.53458,-0.47625 2.43416,-0.47625 1.00542,0 1.85209,0.18521 2.59292,0.58208 0.74083,0.39688 1.34937,0.89959 1.82562,1.56104 0.47625,0.66146 0.82021,1.37584 1.03188,2.2225 0.21167,0.82021 0.29104,1.69334 0.23812,2.59292 h -8.41375 c 0.0265,1.03188 0.29105,1.77271 0.79375,2.24896 z m 3.6248,-6.13833 c -0.39688,-0.42334 -0.97896,-0.635 -1.74625,-0.635 -0.50271,0 -0.92605,0.0794 -1.27,0.26458 -0.34396,0.18521 -0.60855,0.39687 -0.82021,0.635 -0.21167,0.26458 -0.34396,0.52917 -0.42334,0.82021 -0.0794,0.29104 -0.13229,0.52916 -0.15875,0.76729 h 5.2123 c -0.15875,-0.82021 -0.42334,-1.42875 -0.79375,-1.85208 z m 8.65187,6.13833 c 0.47625,0.47625 1.16417,0.68792 2.09021,0.68792 0.635,0 1.21708,-0.15875 1.66687,-0.47625 0.47625,-0.3175 0.74084,-0.66146 0.84667,-1.03188 h 2.83104 c -0.44979,1.40229 -1.13771,2.40771 -2.09021,3.01625 -0.92604,0.60854 -2.06375,0.89958 -3.38666,0.89958 -0.92604,0 -1.74625,-0.15875 -2.48709,-0.44979 -0.74083,-0.29104 -1.37583,-0.71437 -1.87854,-1.24354 -0.50271,-0.52917 -0.89958,-1.19062 -1.19062,-1.95792 -0.29104,-0.74083 -0.42334,-1.5875 -0.42334,-2.48708 0,-0.87312 0.1323,-1.69333 0.42334,-2.43417 0.29104,-0.74083 0.68791,-1.40229 1.21708,-1.95791 0.52917,-0.55563 1.16417,-0.97896 1.87854,-1.29646 0.74084,-0.3175 1.53459,-0.47625 2.43417,-0.47625 1.00542,0 1.85208,0.18521 2.59292,0.58208 0.74083,0.39688 1.34937,0.89959 1.82562,1.56104 0.47625,0.66146 0.82021,1.37584 1.03188,2.2225 0.21166,0.82021 0.29104,1.69334 0.23812,2.59292 h -8.44021 c 0.0794,1.03188 0.34396,1.77271 0.82021,2.24896 z m 3.62479,-6.13833 c -0.39687,-0.42334 -0.97896,-0.635 -1.74625,-0.635 -0.50271,0 -0.92604,0.0794 -1.27,0.26458 -0.34396,0.18521 -0.60854,0.39687 -0.82021,0.635 -0.21166,0.26458 -0.34395,0.52917 -0.42333,0.82021 -0.0794,0.29104 -0.13229,0.52916 -0.15875,0.76729 h 5.21229 c -0.13229,-0.82021 -0.39687,-1.42875 -0.79375,-1.85208 z m 13.54667,7.46125 c -0.37042,0.635 -0.87313,1.08479 -1.48167,1.37583 -0.60854,0.29104 -1.29646,0.42333 -2.06375,0.42333 -0.87312,0 -1.64041,-0.15875 -2.30187,-0.50271 -0.66146,-0.34395 -1.21709,-0.79375 -1.64042,-1.37583 -0.42333,-0.58208 -0.74083,-1.24354 -0.97896,-2.01083 -0.21166,-0.74084 -0.3175,-1.53459 -0.3175,-2.35479 0,-0.79375 0.10584,-1.53459 0.3175,-2.27542 0.21167,-0.74083 0.52917,-1.37583 0.97896,-1.93146 0.42333,-0.55562 0.97896,-1.00542 1.61396,-1.34937 0.635,-0.34396 1.40229,-0.50271 2.24896,-0.50271 0.68791,0 1.34937,0.15875 1.98437,0.44979 0.635,0.29104 1.11125,0.71437 1.48167,1.29646 h 0.0529 v -5.90021 h 3.20145 v 16.13958 h -3.0427 v -1.48166 z m -0.13229,-5.79438 c -0.0794,-0.44979 -0.23813,-0.84667 -0.47625,-1.16417 -0.21167,-0.34395 -0.50271,-0.60854 -0.84667,-0.8202 -0.34396,-0.21167 -0.79375,-0.3175 -1.32292,-0.3175 -0.52916,0 -0.97895,0.10583 -1.32291,0.3175 -0.37042,0.21166 -0.66146,0.5027 -0.87313,0.84666 -0.21166,0.34396 -0.37041,0.74084 -0.47625,1.19063 -0.10583,0.44979 -0.15875,0.89958 -0.15875,1.40229 0,0.44979 0.0529,0.89958 0.15875,1.34937 0.10584,0.4498 0.26459,0.84667 0.50271,1.21709 0.23813,0.34396 0.52917,0.635 0.87313,0.84666 0.34395,0.21167 0.76729,0.3175 1.27,0.3175 0.52916,0 0.97895,-0.10583 1.32291,-0.3175 0.34396,-0.21166 0.635,-0.5027 0.84667,-0.84666 0.21167,-0.34396 0.37042,-0.76729 0.44979,-1.21709 0.0794,-0.44979 0.13229,-0.92604 0.13229,-1.40229 0.0529,-0.47625 0,-0.9525 -0.0794,-1.40229 z m 32.43791,5.79438 c -0.37041,0.635 -0.87312,1.08479 -1.48166,1.37583 -0.60854,0.29104 -1.29646,0.42333 -2.06375,0.42333 -0.87313,0 -1.64042,-0.15875 -2.30188,-0.50271 -0.66146,-0.34395 -1.21708,-0.79375 -1.64041,-1.37583 -0.42334,-0.58208 -0.74084,-1.24354 -0.97896,-2.01083 -0.21167,-0.74084 -0.3175,-1.53459 -0.3175,-2.35479 0,-0.79375 0.10583,-1.53459 0.3175,-2.27542 0.21166,-0.74083 0.52916,-1.37583 0.97896,-1.93146 0.42333,-0.55562 0.97895,-1.00542 1.61395,-1.34937 0.635,-0.34396 1.4023,-0.50271 2.24896,-0.50271 0.68792,0 1.34938,0.15875 1.98438,0.44979 0.635,0.29104 1.11125,0.71437 1.48166,1.29646 h 0.0529 v -1.48167 h 3.20146 v 11.72104 h -3.04271 v -1.48166 z m -0.13229,-5.79438 c -0.0794,-0.44979 -0.23812,-0.84667 -0.47625,-1.16417 -0.21166,-0.34395 -0.50271,-0.60854 -0.84666,-0.8202 -0.34396,-0.21167 -0.79375,-0.3175 -1.32292,-0.3175 -0.52917,0 -0.97896,0.10583 -1.32292,0.3175 -0.37041,0.21166 -0.66146,0.5027 -0.87312,0.84666 -0.21167,0.34396 -0.37042,0.74084 -0.47625,1.19063 -0.10584,0.44979 -0.15875,0.89958 -0.15875,1.40229 0,0.44979 0.0529,0.89958 0.15875,1.34937 0.10583,0.4498 0.26458,0.84667 0.50271,1.21709 0.23812,0.34396 0.52916,0.635 0.87312,0.84666 0.34396,0.21167 0.79375,0.3175 1.27,0.3175 0.52917,0 0.97896,-0.10583 1.32292,-0.3175 0.34396,-0.21166 0.635,-0.5027 0.84666,-0.84666 0.21167,-0.34396 0.37042,-0.76729 0.4498,-1.21709 0.0794,-0.44979 0.13229,-0.92604 0.13229,-1.40229 0.0529,-0.47625 0,-0.9525 -0.0794,-1.40229 z m -24.23583,-4.41854 v 1.5875 h 0.0529 c 0.42333,-0.60854 0.92604,-1.05833 1.53458,-1.40229 0.58208,-0.3175 1.27,-0.50271 2.03729,-0.50271 0.74083,0 1.40229,0.13229 2.01083,0.42333 0.60855,0.29104 1.0848,0.79375 1.4023,1.50813 0.34395,-0.50271 0.8202,-0.9525 1.40229,-1.34938 0.60854,-0.39687 1.29646,-0.58208 2.11666,-0.58208 0.60855,0 1.19063,0.0794 1.7198,0.23812 0.52916,0.15875 0.97895,0.39688 1.34937,0.71438 0.37042,0.34396 0.66146,0.76729 0.87313,1.29646 0.21166,0.52916 0.3175,1.19062 0.3175,1.93146 v 7.83166 h -3.175 v -6.61458 c 0,-0.39688 -0.0265,-0.76729 -0.0529,-1.11125 -0.0265,-0.34396 -0.10583,-0.635 -0.23813,-0.89958 -0.13229,-0.26459 -0.34395,-0.4498 -0.60854,-0.60855 -0.26458,-0.15875 -0.60854,-0.23812 -1.08479,-0.23812 -0.44979,0 -0.82021,0.0794 -1.08479,0.26458 -0.29104,0.18521 -0.50271,0.39688 -0.66146,0.68792 -0.15875,0.29104 -0.26458,0.60854 -0.3175,0.9525 -0.0529,0.34396 -0.0794,0.71437 -0.0794,1.08479 v 6.48229 h -3.20146 v -6.56166 c 0,-0.34396 0,-0.68792 -0.0265,-1.03188 -0.0265,-0.34396 -0.0794,-0.66146 -0.18521,-0.92604 -0.10583,-0.29104 -0.29104,-0.50271 -0.55562,-0.68792 -0.26459,-0.18521 -0.66146,-0.26458 -1.16417,-0.26458 -0.15875,0 -0.34396,0.0265 -0.60854,0.10583 -0.23813,0.0794 -0.50271,0.18521 -0.71438,0.39688 -0.23812,0.18521 -0.42333,0.44979 -0.60854,0.82021 -0.15875,0.34395 -0.23812,0.8202 -0.23812,1.40229 v 6.74687 h -3.20146 v -11.69458 z m 32.04104,0 v 1.48167 h 0.0529 c 0.39687,-0.635 0.89958,-1.0848 1.48166,-1.37584 0.60855,-0.29104 1.27,-0.42333 1.98438,-0.42333 0.92604,0 1.71979,0.18521 2.38125,0.52917 0.66146,0.34395 1.21708,0.79375 1.64042,1.37583 0.42333,0.58208 0.76729,1.24354 0.97895,2.01083 0.21167,0.76729 0.3175,1.56104 0.3175,2.38125 0,0.79375 -0.10583,1.53459 -0.3175,2.24896 -0.21166,0.71438 -0.52916,1.37583 -0.9525,1.93146 -0.42333,0.55562 -0.9525,1.00542 -1.61395,1.32292 -0.635,0.34395 -1.4023,0.5027 -2.24896,0.5027 -0.71438,0 -1.40229,-0.15875 -2.01084,-0.44979 -0.60854,-0.29104 -1.11125,-0.71437 -1.50812,-1.29646 h -0.0529 v 5.5298 h -3.20146 v -15.76917 z m 4.18042,9.28687 c 0.34396,-0.21166 0.635,-0.47625 0.84666,-0.8202 0.21167,-0.34396 0.37042,-0.74084 0.47625,-1.19063 0.0794,-0.44979 0.1323,-0.89958 0.1323,-1.37583 0,-0.47625 -0.0529,-0.92604 -0.15875,-1.37584 -0.10584,-0.44979 -0.26459,-0.84666 -0.47625,-1.21708 -0.23813,-0.34396 -0.52917,-0.635 -0.87313,-0.84667 -0.34396,-0.21166 -0.79375,-0.3175 -1.29646,-0.3175 -0.52916,0 -0.97896,0.10584 -1.32291,0.3175 -0.34396,0.21167 -0.635,0.50271 -0.84667,0.84667 -0.21167,0.34396 -0.37042,0.74083 -0.47625,1.19063 -0.0794,0.44979 -0.13229,0.92604 -0.13229,1.40229 0,0.47625 0.0529,0.92604 0.15875,1.37583 0.10583,0.44979 0.26458,0.84667 0.47625,1.19063 0.21166,0.34395 0.50271,0.60854 0.87312,0.8202 0.37042,0.21167 0.79375,0.3175 1.32292,0.3175 0.50271,0 0.92604,-0.10583 1.29646,-0.3175 z m 8.59896,-0.5027 c 0.13229,0.23812 0.3175,0.44979 0.55562,0.60854 0.23813,0.15875 0.47625,0.26458 0.76729,0.34396 0.29104,0.0794 0.60854,0.10583 0.92604,0.10583 0.23813,0 0.47625,-0.0265 0.71438,-0.0794 0.23812,-0.0529 0.47625,-0.13229 0.68792,-0.23812 0.21166,-0.10583 0.37041,-0.26458 0.5027,-0.44979 0.1323,-0.18521 0.21167,-0.42334 0.21167,-0.71438 0,-0.47625 -0.3175,-0.84666 -0.9525,-1.08479 -0.635,-0.23812 -1.53458,-0.47625 -2.67229,-0.71437 -0.47625,-0.10584 -0.92604,-0.23813 -1.37583,-0.37042 -0.4498,-0.13229 -0.84667,-0.34396 -1.19063,-0.55563 -0.34396,-0.23812 -0.635,-0.52916 -0.84667,-0.87312 -0.21166,-0.34396 -0.3175,-0.79375 -0.3175,-1.29646 0,-0.74083 0.15875,-1.37583 0.4498,-1.85208 0.29104,-0.47625 0.68791,-0.87313 1.16416,-1.13771 0.47625,-0.29104 1.03188,-0.47625 1.61396,-0.58208 0.60854,-0.10584 1.21708,-0.15875 1.85208,-0.15875 0.635,0 1.24355,0.0529 1.85209,0.1852 0.60854,0.1323 1.13771,0.3175 1.5875,0.60855 0.47625,0.29104 0.84666,0.66145 1.16416,1.1377 0.3175,0.47625 0.50271,1.0848 0.55563,1.79917 h -3.04271 c -0.0529,-0.60854 -0.29104,-1.03187 -0.71437,-1.24354 -0.42334,-0.21167 -0.92605,-0.3175 -1.48167,-0.3175 -0.18521,0 -0.37042,0 -0.58208,0.0265 -0.21167,0.0265 -0.39688,0.0794 -0.58209,0.15875 -0.18521,0.0794 -0.3175,0.18521 -0.44979,0.3175 -0.13229,0.13229 -0.18521,0.34396 -0.18521,0.58208 0,0.29104 0.10584,0.52917 0.3175,0.68792 0.21167,0.18521 0.47625,0.3175 0.82021,0.44979 0.34396,0.10583 0.71438,0.21167 1.16417,0.29104 0.44979,0.0794 0.87312,0.18521 1.32291,0.29104 0.47625,0.10584 0.92605,0.23813 1.37584,0.39688 0.44979,0.15875 0.84666,0.34396 1.19062,0.60854 0.34396,0.23812 0.635,0.55562 0.84667,0.92604 0.21167,0.37042 0.3175,0.82021 0.3175,1.37583 0,0.7673 -0.15875,1.4023 -0.47625,1.93146 -0.3175,0.52917 -0.71438,0.92604 -1.21708,1.24354 -0.50271,0.3175 -1.05834,0.52917 -1.7198,0.66146 -0.635,0.13229 -1.29645,0.18521 -1.95791,0.18521 -0.68792,0 -1.34938,-0.0794 -1.98438,-0.21167 -0.635,-0.13229 -1.21708,-0.37041 -1.71979,-0.68791 -0.50271,-0.3175 -0.92604,-0.74084 -1.24354,-1.24354 -0.3175,-0.52917 -0.50271,-1.16417 -0.52917,-1.95792 h 3.04271 c 0.0265,0.3175 0.10583,0.60854 0.23813,0.84667 z"
         inkscape:connector-curvature="0" />
      <path
         style="stroke-width:0.26458332"
         id="path11576"
         class="smile"
         d="m 189.42945,289.31722 c 6.93208,0 10.45104,-2.64583 10.45104,-2.64583 l 1.48167,2.01083 c 0,0 -5.18583,4.39209 -11.93271,4.39209 -6.77333,0 -11.93271,-4.39209 -11.93271,-4.39209 l 1.48167,-2.01083 c 0,0.0265 3.51896,2.64583 10.45104,2.64583 z"
         inkscape:connector-curvature="0" />
    </g>
  </g>
</svg>
