<svg xmlns="http://www.w3.org/2000/svg" width="1320.06" height="189.65">
  <path d="M598.73 94.75V0h45.07c20.63.74 36.45-2.23 55.25 5.86 16.06 7.94 25.04 19.98 28.07 37.63a51.12 51.12 0 0 1-4.65 30.5c-4.05 7.96-15.24 19.07-22.93 22.78-10.07 4.87-20.74 6.04-55.15 6.05h-31v86.67h-14.66zm92.3-11c28.33-13.92 27.77-51.94-.97-65.18-6.42-2.96-7.96-3.08-41.33-3.08h-34.67l-.36 34.65c-.2 19.05-.04 35.46.35 36.46.57 1.5 6.93 1.74 35.02 1.36 15.76-.14 27.6 1.53 41.96-4.21zm158.31 95.63c-41.35-34.42-79.29-76.69-92.17-102.7-7.63-15.74-7.8-31.4-1.5-44.84 12.86-27.27 44.85-39.12 71.68-26.56 10.86 5.08 16.77 10.56 27.38 25.39 4.76 6.66 9.04 11.97 9.51 11.8.47-.17 5.3-6.3 10.75-13.64 10.8-14.54 15.78-18.97 27.42-24.41C917-1 933.27-.78 945.4 4.97c12.7 6.08 20.37 13.52 26.3 25.54 8.56 18.26 5.27 34.06-1.24 47.1-11.03 22.05-35.18 50.75-68.34 81.2-23.3 21.4-34.82 30.68-38.09 30.68-1.39 0-8-4.55-14.68-10.1zm23.9-14.86c41.8-36.23 72.75-70.83 84.4-94.36 4.73-9.54 5.22-11.45 4.66-18.15-2.02-24.22-23.47-40.71-46.67-35.9-12.25 2.54-18.6 7.9-33.24 28.02-7.2 9.89-14 18.5-15.14 19.12-4.45 2.5-8.09-.74-21.52-19.12-15.13-20.7-20.76-25.43-33.39-28.05-19.69-4.09-40.04 8.72-45.15 28.4-2.4 9.23-2.28 11.62.94 20.24 6.24 16.66 24.83 40.25 55.56 70.49 17.6 17.31 38.83 36.8 40.22 36.9.29.03 4.49-3.39 9.34-7.59zm126.82-69.76V.03l45 .4c43.57.39 45.24.5 52.71 3.51 23.6 12.81 30.93 27.62 30.96 46.89.2 14.9-3.3 25.23-13.62 35.74-6.1 6.1-19.12 13.6-23.63 13.6-1.15 0-2.08.44-2.07 1 .01.54 11.4 20.5 25.3 44.32l25.28 43.34-8.94.4c-4.92.22-9.12-.08-9.33-.67-.21-.59-11.37-19.97-24.79-43.07l-24.4-42-28.24-.36-28.23-.36v86.72h-16zm91.62-10.44c8.3-3.72 17.97-13.6 20.46-20.9 5.93-17.42-2.31-36.23-19.6-44.74-6.25-3.07-7.72-3.2-41.48-3.63l-35-.45v73.8l34.33-.48c32.57-.46 34.7-.64 41.29-3.6zm79.05 10.43V.01l5.55.4 5.55.42 61.11 80.47 61.12 80.48V.17h16V189.64l-5.67-.41-5.66-.41-60.67-79.81-60.67-79.81-.34 80.14-.34 80.14h-15.98z" style="fill:#ed6397;stroke-width:1.33333337"/>
  <path d="M66.73 143.05V96.61L40.59 58.7A14964.7 14964.7 0 0 0 7.23 10.5L0 .16h44.76L62.74 27A2197.7 2197.7 0 0 0 83.58 57.7l2.84 3.9 20.27-30.15C117.83 14.9 127.68 1.05 128.56.71c.88-.34 11.02-.45 22.52-.25L172 .83l-33.3 48-33.3 48v92.66H66.72zm183.33 44.47c-33.9-6.28-59.95-27.96-71.45-59.45-19.13-52.42 9.57-109 62.8-123.84 36.27-10.11 75.47.53 99.44 26.99 32.13 35.46 31.99 92.7-.3 127.58-22.02 23.77-57.1 34.91-90.49 28.72zm36.86-36.67c21.02-6.56 35.15-26.3 36.78-51.36 1.7-26.23-10.3-48.44-31.64-58.55-16-6.07-33.35-6.27-46.93.12-15.25 7.22-25.13 19.64-29.75 37.36-3.78 14.53-1.86 32.92 4.8 45.97 5.99 11.74 19.62 23.22 32.26 27.17 8.62 2.7 24.63 2.36 34.48-.71zm172.47 36.68c-12.4-2.73-21.15-6.53-30.68-13.33-10.55-7.53-18.2-16.84-24.14-29.37-8.93-18.84-8.97-19.2-9.52-85l-.5-59.67h40.05l.4 59c.41 58.87.42 59.02 3.63 66.77 7.08 17.13 20.75 26.72 38.1 26.72 17.33 0 31.39-9.88 38.26-26.89 3.02-7.48 3.08-8.54 3.46-66.6l.38-59h40.09l-.55 60.33c-.6 67.03-.6 66.97-10.04 86.34-15.17 31.1-53.26 48.53-88.94 40.7z" style="fill:#222;stroke-width:1.33333337"/>
</svg>
