<?xml version="1.0" encoding="utf-8"?>
<!-- Generator: Adobe Illustrator 16.0.0, SVG Export Plug-In . SVG Version: 6.00 Build 0)  -->
<!DOCTYPE svg PUBLIC "-//W3C//DTD SVG 1.1//EN" "http://www.w3.org/Graphics/SVG/1.1/DTD/svg11.dtd">
<svg version="1.1" id="Layer_1" xmlns="http://www.w3.org/2000/svg" xmlns:xlink="http://www.w3.org/1999/xlink" x="0px" y="0px"
	 width="356.5px" height="63px" viewBox="0 0 356.5 63" enable-background="new 0 0 356.5 63" xml:space="preserve">
<g>
	<path fill="#008A44" d="M56.88,42.92c-1.28,0.64-3.84,1.28-7.12,1.28c-7.6,0-13.32-4.8-13.32-13.64c0-8.44,5.72-14.16,14.08-14.16
		c3.36,0,5.48,0.72,6.4,1.2l-0.84,2.84c-1.32-0.64-3.2-1.12-5.44-1.12c-6.32,0-10.52,4.04-10.52,11.12c0,6.6,3.8,10.84,10.36,10.84
		c2.12,0,4.28-0.44,5.68-1.12L56.88,42.92z"/>
	<path fill="#008A44" d="M61.12,15.4h3.52v28.4h-3.52V15.4z"/>
	<path fill="#008A44" d="M74.48,19c0.04,1.2-0.84,2.16-2.24,2.16c-1.24,0-2.12-0.96-2.12-2.16c0-1.24,0.92-2.2,2.2-2.2
		C73.64,16.8,74.48,17.76,74.48,19z M70.56,43.8V24.44h3.52V43.8H70.56z"/>
	<path fill="#008A44" d="M79.92,29.68c0-2-0.04-3.64-0.16-5.24h3.08L83,27.56h0.12C84.2,25.72,86,24,89.2,24
		c2.64,0,4.64,1.6,5.48,3.88h0.08c0.6-1.08,1.36-1.92,2.16-2.52c1.16-0.88,2.44-1.36,4.28-1.36c2.56,0,6.36,1.68,6.36,8.4v11.4
		h-3.44V32.84c0-3.72-1.36-5.96-4.2-5.96c-2,0-3.56,1.48-4.16,3.2c-0.16,0.48-0.28,1.12-0.28,1.76V43.8h-3.44V32.2
		c0-3.08-1.36-5.32-4.04-5.32c-2.2,0-3.8,1.76-4.36,3.52c-0.2,0.52-0.28,1.12-0.28,1.72V43.8h-3.44V29.68z"/>
	<path fill="#008A44" d="M124,43.8l-0.28-2.44h-0.12c-1.08,1.52-3.16,2.88-5.92,2.88c-3.92,0-5.92-2.76-5.92-5.56
		c0-4.68,4.16-7.24,11.64-7.2v-0.4c0-1.6-0.44-4.48-4.4-4.48c-1.8,0-3.68,0.56-5.04,1.44l-0.8-2.32c1.6-1.04,3.92-1.72,6.36-1.72
		c5.92,0,7.36,4.04,7.36,7.92v7.24c0,1.68,0.08,3.32,0.32,4.64H124z M123.48,33.92c-3.84-0.08-8.2,0.6-8.2,4.36
		c0,2.28,1.52,3.36,3.32,3.36c2.52,0,4.12-1.6,4.68-3.24c0.12-0.36,0.2-0.76,0.2-1.12V33.92z"/>
	<path fill="#008A44" d="M136.64,18.88v5.56h5.04v2.68h-5.04v10.44c0,2.4,0.68,3.76,2.64,3.76c0.92,0,1.6-0.12,2.04-0.24l0.16,2.64
		c-0.68,0.28-1.76,0.48-3.12,0.48c-1.64,0-2.96-0.52-3.8-1.48c-1-1.04-1.36-2.76-1.36-5.04V27.12h-3v-2.68h3V19.8L136.64,18.88z"/>
	<path fill="#008A44" d="M147.36,34.76c0.08,4.76,3.12,6.72,6.64,6.72c2.52,0,4.04-0.44,5.36-1l0.6,2.52
		c-1.24,0.56-3.36,1.2-6.44,1.2c-5.96,0-9.52-3.92-9.52-9.76S147.44,24,153.08,24c6.32,0,8,5.56,8,9.12c0,0.72-0.08,1.28-0.12,1.64
		H147.36z M157.68,32.24c0.04-2.24-0.92-5.72-4.88-5.72c-3.56,0-5.12,3.28-5.4,5.72H157.68z"/>
	<path fill="#0071BC" d="M174.04,17.2c1.76-0.36,4.28-0.56,6.68-0.56c3.72,0,6.12,0.68,7.8,2.2c1.36,1.2,2.12,3.04,2.12,5.12
		c0,3.56-2.24,5.92-5.08,6.88v0.12c2.08,0.72,3.32,2.64,3.96,5.44c0.88,3.76,1.52,6.36,2.08,7.4H188c-0.44-0.76-1.04-3.08-1.8-6.44
		c-0.8-3.72-2.24-5.12-5.4-5.24h-3.28V43.8h-3.48V17.2z M177.52,29.48h3.56c3.72,0,6.08-2.04,6.08-5.12c0-3.48-2.52-5-6.2-5.04
		c-1.68,0-2.88,0.16-3.44,0.32V29.48z"/>
	<path fill="#0071BC" d="M197.56,34.76c0.08,4.76,3.12,6.72,6.64,6.72c2.52,0,4.04-0.44,5.36-1l0.6,2.52
		c-1.24,0.56-3.36,1.2-6.44,1.2c-5.96,0-9.52-3.92-9.52-9.76S197.64,24,203.28,24c6.32,0,8,5.56,8,9.12c0,0.72-0.08,1.28-0.12,1.64
		H197.56z M207.88,32.24c0.04-2.24-0.92-5.72-4.88-5.72c-3.56,0-5.12,3.28-5.4,5.72H207.88z"/>
	<path fill="#0071BC" d="M226.36,43.8l-0.28-2.44h-0.12c-1.08,1.52-3.16,2.88-5.92,2.88c-3.92,0-5.92-2.76-5.92-5.56
		c0-4.68,4.16-7.24,11.64-7.2v-0.4c0-1.6-0.44-4.48-4.4-4.48c-1.8,0-3.68,0.56-5.04,1.44l-0.8-2.32c1.6-1.04,3.92-1.72,6.36-1.72
		c5.92,0,7.36,4.04,7.36,7.92v7.24c0,1.68,0.08,3.32,0.32,4.64H226.36z M225.83,33.92c-3.84-0.08-8.2,0.6-8.2,4.36
		c0,2.28,1.52,3.36,3.32,3.36c2.52,0,4.12-1.6,4.68-3.24c0.12-0.36,0.2-0.76,0.2-1.12V33.92z"/>
	<path fill="#0071BC" d="M234.92,29.68c0-2-0.04-3.64-0.16-5.24h3.12l0.2,3.2h0.08c0.96-1.84,3.2-3.64,6.4-3.64
		c2.68,0,6.84,1.6,6.84,8.24V43.8h-3.52V32.64c0-3.12-1.16-5.72-4.48-5.72c-2.32,0-4.12,1.64-4.72,3.6
		c-0.16,0.44-0.24,1.04-0.24,1.64V43.8h-3.52V29.68z"/>
	<path fill="#0071BC" d="M267.83,43.8l-0.28-2.44h-0.12c-1.08,1.52-3.16,2.88-5.92,2.88c-3.92,0-5.92-2.76-5.92-5.56
		c0-4.68,4.16-7.24,11.64-7.2v-0.4c0-1.6-0.44-4.48-4.4-4.48c-1.8,0-3.68,0.56-5.04,1.44l-0.8-2.32c1.6-1.04,3.92-1.72,6.36-1.72
		c5.92,0,7.36,4.04,7.36,7.92v7.24c0,1.68,0.08,3.32,0.32,4.64H267.83z M267.31,33.92c-3.84-0.08-8.2,0.6-8.2,4.36
		c0,2.28,1.52,3.36,3.32,3.36c2.52,0,4.12-1.6,4.68-3.24c0.12-0.36,0.2-0.76,0.2-1.12V33.92z"/>
	<path fill="#0071BC" d="M276.4,15.4h3.52v28.4h-3.52V15.4z"/>
	<path fill="#0071BC" d="M287.12,24.44l4.24,11.44c0.44,1.28,0.92,2.8,1.24,3.96h0.08c0.36-1.16,0.76-2.64,1.24-4.04l3.84-11.36
		h3.72l-5.28,13.8c-2.52,6.64-4.24,10.04-6.64,12.12c-1.72,1.52-3.44,2.12-4.32,2.28l-0.88-2.96c0.88-0.28,2.04-0.84,3.08-1.72
		c0.96-0.76,2.16-2.12,2.96-3.92c0.16-0.36,0.28-0.64,0.28-0.84c0-0.2-0.08-0.48-0.24-0.92l-7.16-17.84H287.12z"/>
	<path fill="#0071BC" d="M302.48,41.76l8.76-11.4c0.84-1.04,1.64-1.96,2.52-3v-0.08h-10.48v-2.84h14.76l-0.04,2.2l-8.64,11.24
		c-0.8,1.08-1.6,2.04-2.48,3.04V41h11.32v2.8h-15.72V41.76z"/>
	<path fill="#0071BC" d="M323.47,34.76c0.08,4.76,3.12,6.72,6.64,6.72c2.52,0,4.04-0.44,5.36-1l0.6,2.52
		c-1.24,0.56-3.36,1.2-6.44,1.2c-5.96,0-9.52-3.92-9.52-9.76S323.55,24,329.19,24c6.32,0,8,5.56,8,9.12c0,0.72-0.08,1.28-0.12,1.64
		H323.47z M333.79,32.24c0.04-2.24-0.92-5.72-4.88-5.72c-3.56,0-5.12,3.28-5.4,5.72H333.79z"/>
	<path fill="#0071BC" d="M341.56,30.48c0-2.28-0.04-4.24-0.16-6.04h3.08l0.12,3.8h0.16c0.88-2.6,3-4.24,5.36-4.24
		c0.4,0,0.68,0.04,1,0.12v3.32c-0.36-0.08-0.72-0.12-1.2-0.12c-2.48,0-4.24,1.88-4.72,4.52c-0.08,0.48-0.16,1.04-0.16,1.64V43.8
		h-3.48V30.48z"/>
</g>
<polyline id="lines" fill="none" stroke="#FFB03B" stroke-width="3" stroke-linecap="round" stroke-linejoin="round" stroke-miterlimit="10" points="
	27.54,56 24.76,5.6 20.35,42.93 17.08,30.33 13.16,50.24 10.38,16.18 5.64,39.04 "/>
</svg>
