<svg xmlns="http://www.w3.org/2000/svg" viewBox="0 0 1136.87 211.17"><defs><style>.cls-1{fill:#00898b;}.cls-2{fill:#fff;}</style></defs><g id="Layer_2" data-name="Layer 2"><g id="Layer_1-2" data-name="Layer 1"><path class="cls-1" d="M55,211.17c-.2-3.27-.48-6.53-.58-9.8-.11-3.79-.21-7.6-.07-11.39q.33-8.91,1-17.81a295.55,295.55,0,0,1,6.08-43.72A293.75,293.75,0,0,1,80.92,71.8c8.34-18.4,19.14-35.33,31-51.59,4.3-5.87,8.68-11.68,13-17.54a2.5,2.5,0,0,1,2.24-1.22c11.4-.06,22.79-.17,34.18-.26a3.47,3.47,0,0,1,.55.08l.27.36c-.92.81-1.87,1.58-2.76,2.42a276.71,276.71,0,0,0-34.91,41,231.06,231.06,0,0,0-19.16,32.22,276.12,276.12,0,0,0-20,54.57,174.24,174.24,0,0,0-4.53,27.51c-.4,4.89-.79,9.79-.94,14.69-.19,6.47-.29,12.95-.16,19.42.13,5.9.61,11.79.94,17.69Z"/><path class="cls-1" d="M338.87,211.17c5.24-5,10.61-10,15.72-15.12a260.94,260.94,0,0,0,31-37.56A206.7,206.7,0,0,0,411,107.05a199.11,199.11,0,0,0,8.31-35.29c1.07-7.9,1.9-15.84,2.66-23.78.55-5.8.86-11.62,1.22-17.44.33-5.53.75-11.07.84-16.62.06-3.86-.35-7.72-.59-11.59-.05-.81.14-1.16,1-1.16q11.58,0,23.16,0c.83,0,1.1.28,1.1,1.12,0,8.75.25,17.52-.1,26.27-.36,9.2-1.13,18.39-2,27.56C445,71.73,441.79,87,438.19,102.28a117.78,117.78,0,0,1-8.92,24c-4,8.31-8.06,16.61-12.25,24.83-6.42,12.59-13.36,24.88-21.91,36.16-4.14,5.46-8.74,10.59-13.28,15.75-2.29,2.61-4.88,4.94-7.34,7.41a7,7,0,0,0-.58.74Z"/><path class="cls-1" d="M415.67,211.17c5-7.24,10.06-14.42,14.94-21.74a289.71,289.71,0,0,0,20.1-34.74,209,209,0,0,0,14.16-39,432.58,432.58,0,0,0,8.84-43.77c1.42-9.51,2.45-19.08,3.45-28.64.55-5.24.83-10.51,1-15.77.2-8.43.19-16.87.24-25.3,0-.73.19-1,.93-1q11.82,0,23.64,0c.7,0,1,.24,1,1,0,7.72.07,15.44,0,23.16-.07,4.79-.26,9.58-.68,14.35-.53,6-1.35,12.05-2.06,18.08-1.41,11.94-3.77,23.72-6.05,35.52A302,302,0,0,1,476.66,154a370.14,370.14,0,0,1-29.78,55.9c-.26.41-.49.83-.73,1.24Z"/><path d="M1136.87,119.73c-.63,2.92-1.18,5.85-1.9,8.75a102.4,102.4,0,0,1-23.34,44,105.87,105.87,0,0,1-33.35,25.2,98.62,98.62,0,0,1-33.44,9.62,116.83,116.83,0,0,1-15.42.62A87.19,87.19,0,0,1,989.73,197c-3.64-2-7.15-4.22-10.7-6.39a1.74,1.74,0,0,1-.81-1.15c-.06-4.75,0-9.51,0-14.59l1.34,1a91.75,91.75,0,0,0,27.07,15.62,73.62,73.62,0,0,0,18.78,4.07c2.9.22,5.82.41,8.73.38a89,89,0,0,0,36.31-8.08,92.48,92.48,0,0,0,25.52-17.21c15.21-14.46,24.77-32,28.11-52.73a87,87,0,0,0-2.92-39.77,90.4,90.4,0,0,0-20.23-35.12A91.87,91.87,0,0,0,1051,14.66,85.28,85.28,0,0,0,1029,13a78.35,78.35,0,0,0-33.64,9.78,114.77,114.77,0,0,0-16,10.73c-.21.17-.44.32-.79.57a8.6,8.6,0,0,1-.11-1c0-4.56,0-9.12,0-13.68a1.6,1.6,0,0,1,.82-1.55A111.34,111.34,0,0,1,1003.5,5.71a77.29,77.29,0,0,1,19.6-4.28A142,142,0,0,1,1039.6,1a96.31,96.31,0,0,1,27.16,5.38,106.84,106.84,0,0,1,64,60.73,100.48,100.48,0,0,1,5.9,21.2,4.26,4.26,0,0,0,.22.66Z"/><path class="cls-1" d="M256.94,24.23a22.58,22.58,0,0,0-4.65-.54c-5.79.56-11.64,1-17.34,2-14.83,2.86-28,9.46-40,18.53a130.4,130.4,0,0,0-27.21,28.19A158.75,158.75,0,0,0,151,102.16a190.19,190.19,0,0,0-11.58,36.36,185.14,185.14,0,0,0-3.85,26c-.52,7.84-.67,15.71-1,23.57-.11,2.43-.44,4.86-.37,7.29.14,4.62.51,9.24.77,13.86,0,.47,0,.93,0,1.49-.44,0-.83.06-1.22.06-7.52,0-15,0-22.56,0-1.07,0-1.44-.23-1.44-1.38,0-9,0-18.08,0-27.12a237.79,237.79,0,0,1,6.4-52.8,223.7,223.7,0,0,1,14.48-42.22A178.31,178.31,0,0,1,159.35,43c11-12.28,23.38-22.84,38-30.6A104.74,104.74,0,0,1,229,1.69,116.19,116.19,0,0,1,253,.08c19.47.73,37.69,5.71,54,16.61,9.71,6.48,17.64,14.63,22.78,25.24a46.61,46.61,0,0,1,4.74,20.13,126.12,126.12,0,0,1-1.88,24.69A85.47,85.47,0,0,1,320.39,117a180.69,180.69,0,0,1-20.92,26.51c-11.72,12.42-24.87,23-40,30.95-5.51,2.88-11.37,5.08-17.07,7.58-.57.25-1.16.43-1.75.65v.38c1.09.28,2.16.61,3.26.82,7.46,1.42,14.8.5,22.06-1.31a87.49,87.49,0,0,0,35.15-17.94c7.28-6,14.75-11.89,21.87-18.12A116.41,116.41,0,0,0,349.42,113,161.31,161.31,0,0,0,365,71a241,241,0,0,0,3.78-24.49,268.15,268.15,0,0,0,1.06-34.36c-.09-3.58-.52-7.16-.84-10.74-.07-.82.14-1.13,1-1.13q12.18,0,24.36,0c.85,0,1.09.29,1.08,1.11,0,7.12.11,14.24,0,21.36a217.46,217.46,0,0,1-1.95,28.06c-1.23,8-2.74,16.06-4.55,24a226.9,226.9,0,0,1-13.18,40.14,126.91,126.91,0,0,1-20.88,33.15c-4.2,4.81-8.4,9.65-12.9,14.18-13.15,13.22-27.65,24.7-44.15,33.52a116.88,116.88,0,0,1-31,11.61,82.94,82.94,0,0,1-21.55,1.75,96.43,96.43,0,0,1-39.76-10.6c-12.78-6.63-23.4-15.7-30.77-28.25a58.32,58.32,0,0,1-7.89-24.44c-1-11.43.72-22.55,4.05-33.45,4.69-15.37,12.64-29,22.85-41.27a163.91,163.91,0,0,1,48.81-39.9c4.25-2.28,8.77-4.06,13.16-6.06l1.27-.55Zm-66.42,114c.23,2.34.31,4.71.73,7,1.68,9.23,7.28,14.91,16.45,16.79a43.66,43.66,0,0,0,14.91.09,77.76,77.76,0,0,0,27-9.42,125.58,125.58,0,0,0,41.07-37c7.22-10,12.9-20.77,16-32.79,2-7.81,2.86-15.72,1.09-23.7-1.61-7.26-5.86-12-13.33-13.57a43.2,43.2,0,0,0-12.28-.45,86.51,86.51,0,0,0-31.34,8.66,111.09,111.09,0,0,0-33.87,25.53,105.72,105.72,0,0,0-21,33.28A76.64,76.64,0,0,0,190.52,138.27Z"/><path d="M834.1,208.57c-5,0-9.72,0-14.43,0a1.67,1.67,0,0,1-1.08-.73q-6.65-9.56-13.22-19.14-13.95-20.23-27.91-40.48l-21.55-31.31c-1.2-1.74-2.39-3.49-3.62-5.22a1.31,1.31,0,0,0-.81-.58c-2,0-4,0-6.09,0V208.5h-13V2.65h1.32c10.52,0,21-.1,31.56,0,7.7.09,15.4.57,22.89,2.58C802,9,812.71,17,819.48,29.77a55.15,55.15,0,0,1,5.93,21.81,67.37,67.37,0,0,1-1.5,21A47.34,47.34,0,0,1,812.1,94.78c-7,7.33-15.67,11.71-25.4,14.14a71.29,71.29,0,0,1-18.86,2.13c-.3,0-.61,0-1.16.07ZM745.46,14.89V98.71a3.26,3.26,0,0,0,.53.09l22.65-.15A60.36,60.36,0,0,0,782.75,97a37.47,37.47,0,0,0,24.46-18.77,43.14,43.14,0,0,0,5.25-23.41,45.49,45.49,0,0,0-3.75-16.71c-5-11.3-13.72-18.16-25.64-21.15-6.56-1.64-13.25-1.88-20-2-5.43-.12-10.87,0-16.31,0Z"/><path d="M959.94,122.33H915V110.26h57.66c.08,1.38.22,2.76.22,4.14q.06,35.08.09,70.19c0,4.71-.15,9.43,0,14.15a3.37,3.37,0,0,1-2.16,3.59,73.47,73.47,0,0,1-9,3.23,69.13,69.13,0,0,1-15.76,2c-5.07.12-10.15.35-15.21.11A103.84,103.84,0,0,1,900,201.42a105.2,105.2,0,0,1-33.19-19.5,101.47,101.47,0,0,1-23.45-29.33,95.74,95.74,0,0,1-10.47-32.68,101.84,101.84,0,0,1,3.94-44,103.8,103.8,0,0,1,22-38.65A106.58,106.58,0,0,1,922.4,2.94a108.91,108.91,0,0,1,23.53-.87,101.49,101.49,0,0,1,25.64,5.08,1.33,1.33,0,0,1,1.12,1.5c-.06,4,0,8,0,12.16-1.93-.7-3.74-1.38-5.57-2a89.74,89.74,0,0,0-21.39-4.49,87.49,87.49,0,0,0-45.23,7.91,93.4,93.4,0,0,0-23.61,15.59A95.6,95.6,0,0,0,849.1,80.36a87.19,87.19,0,0,0,5.7,66.38,87.72,87.72,0,0,0,19,24.65,92.7,92.7,0,0,0,53,23.71,130.92,130.92,0,0,0,13.86.61c5.17-.07,10.38-.25,15.41-1.74.49-.15,1-.32,1.47-.52,2.12-.86,2.39-1.26,2.39-3.55V122.33Z"/><path class="cls-1" d="M86.45.84C85,3.24,83.64,5.42,82.28,7.58a415.89,415.89,0,0,0-21.86,39A349.66,349.66,0,0,0,38.8,102.13a302.75,302.75,0,0,0-9.25,42.2c-1,6.87-1.6,13.79-2.28,20.7a284.69,284.69,0,0,0-.89,31.73c0,3.83.12,7.67.15,11.5,0,2.58,0,2.58-2.5,2.58-7.52,0-15,0-22.56,0-1.08,0-1.43-.27-1.42-1.4.05-7.24-.18-14.48.07-21.71.32-8.85.88-17.7,1.58-26.53a293.44,293.44,0,0,1,6.49-41.14C12.72,100,18.1,80.16,25.73,61A318.33,318.33,0,0,1,47.59,17.43c3.08-5.23,5.94-10.59,9-15.86.23-.41.89-.58,1.36-.86,0,0,.08,0,.12,0,7,0,14-.14,21-.15C81.39.55,83.77.73,86.45.84Z"/><path d="M576.85,210.12Q540.67,106.12,504.46,2c.48,0,.83-.07,1.17-.07,3.52,0,7,0,10.56,0,.9,0,1.22.32,1.49,1.11q11.19,32.28,22.41,64.54l16.26,46.75q10.18,29.26,20.37,58.53c.18.54.44,1.06.81,1.95.31-.68.49-1,.61-1.35q6.06-17.5,12.11-35,10-28.89,20-57.76l21.11-60.93c1.93-5.59,3.87-11.18,5.77-16.78a1.25,1.25,0,0,1,1.41-1.06c3.84.05,7.67,0,11.81,0q-36.66,104.26-73.23,208.2Z"/><path d="M675,2.72h12.94V208.46H675Z"/><path class="cls-2" d="M745.46,14.89h1.35c5.44,0,10.88-.09,16.31,0,6.7.14,13.39.38,20,2,11.92,3,20.61,9.85,25.64,21.15a45.49,45.49,0,0,1,3.75,16.71,43.14,43.14,0,0,1-5.25,23.41A37.47,37.47,0,0,1,782.75,97a60.36,60.36,0,0,1-14.11,1.67L746,98.8a3.26,3.26,0,0,1-.53-.09Z"/></g></g></svg>